<svg width="43" height="42" viewBox="0 0 43 42" fill="none" xmlns="http://www.w3.org/2000/svg">
<rect x="0.5" width="512" height="512" fill="#D0FFE5"/>
<rect x="49" y="48.5" width="419" height="419" stroke="#002410"/>
<path fill-rule="evenodd" clip-rule="evenodd" d="M18.0547 4.59363C18.0547 4.23119 18.3485 3.93738 18.711 3.93738H24.7813C25.1437 3.93738 25.4375 4.23119 25.4375 4.59363V16.4063C25.4375 16.7687 25.7314 17.0625 26.0938 17.0625L38.2344 17.0625C38.5968 17.0625 38.8906 17.3563 38.8906 17.7188V23.7891C38.8906 24.1515 38.5968 24.4453 38.2344 24.4453H30.8318C30.6577 24.4453 30.4908 24.3762 30.3677 24.2531L18.2469 12.1323C18.1239 12.0092 18.0547 11.8423 18.0547 11.6683V4.59363ZM12.9285 17.2547C12.8054 17.1316 12.6385 17.0625 12.4644 17.0625L5.09375 17.0625C4.73131 17.0625 4.4375 17.3563 4.4375 17.7188V23.7891C4.4375 24.1515 4.73131 24.4453 5.09375 24.4453H17.3985C17.7609 24.4453 18.0547 24.7391 18.0547 25.1016V37.7342C18.0547 38.0967 18.3485 38.3905 18.711 38.3905H24.7813C25.1437 38.3905 25.4375 38.0967 25.4375 37.7342V30.0356C25.4375 29.8616 25.3684 29.6946 25.2453 29.5716L12.9285 17.2547Z" fill="#006100"/>
</svg>
