<svg width="193" height="100" viewBox="0 0 193 100" fill="none" xmlns="http://www.w3.org/2000/svg">
<path opacity="0.3" fill-rule="evenodd" clip-rule="evenodd" d="M85.5201 85.1898C90.6202 80.0422 102.38 80.0422 107.48 85.1898C116.541 94.3353 129.109 100 143 100C170.614 100 193 77.6142 193 50C193 22.3858 170.614 -9.78513e-07 143 -2.18557e-06C129.109 -2.79277e-06 116.541 5.66474 107.48 14.8102C102.38 19.9578 90.6202 19.9578 85.5201 14.8102C76.4592 5.66474 63.8911 -5.64353e-06 50 -6.25073e-06C22.3858 -7.45779e-06 -9.78513e-07 22.3858 -2.18557e-06 50C-3.39263e-06 77.6142 22.3858 100 50 100C63.8911 100 76.4592 94.3353 85.5201 85.1898Z" fill="#E1F6F9"/>
</svg>
